<svg width="160" height="160" viewBox="0 0 160 160" fill="none" xmlns="http://www.w3.org/2000/svg">
<path d="M76.512 149.12C113.935 149.12 144.272 118.783 144.272 81.36C144.272 43.9372 113.935 13.6 76.512 13.6C39.0891 13.6 8.75195 43.9372 8.75195 81.36C8.75195 118.783 39.0891 149.12 76.512 149.12Z" fill="#FFF4DB"/>
<path d="M43.2401 17.048C43.2405 17.0332 43.2446 17.0187 43.2522 17.0059C43.2597 16.993 43.2703 16.9823 43.2831 16.9748C43.2959 16.9672 43.3104 16.9629 43.3253 16.9624C43.3401 16.962 43.3548 16.9653 43.3681 16.972C45.1748 17.936 47.1846 18.4569 49.2321 18.492C49.2468 18.4917 49.2614 18.4952 49.2743 18.5022C49.2873 18.5093 49.2981 18.5196 49.3058 18.5321C49.3135 18.5447 49.3178 18.559 49.3182 18.5738C49.3186 18.5885 49.3151 18.6031 49.3081 18.616C48.3409 20.4229 47.8198 22.4349 47.7881 24.4841C47.7882 24.499 47.7842 24.5138 47.7767 24.5267C47.7692 24.5397 47.7583 24.5504 47.7453 24.5577C47.7322 24.5651 47.7174 24.5688 47.7024 24.5685C47.6875 24.5682 47.6728 24.5639 47.6601 24.5561C45.8538 23.5915 43.8435 23.0718 41.7961 23.04C41.7812 23.0396 41.7667 23.0355 41.7539 23.028C41.7411 23.0204 41.7304 23.0098 41.7228 22.997C41.7152 22.9842 41.711 22.9697 41.7105 22.9549C41.71 22.94 41.7133 22.9253 41.7201 22.9121C42.6872 21.1066 43.2084 19.096 43.2401 17.048Z" fill="#21AB8A"/>
<path d="M21.6601 18.68C21.6607 18.6573 21.6671 18.6352 21.6788 18.6157C21.6904 18.5962 21.7069 18.5801 21.7266 18.5688C21.7463 18.5575 21.7685 18.5515 21.7912 18.5514C21.8139 18.5513 21.8363 18.557 21.8561 18.568C24.6493 20.0599 27.7578 20.8648 30.9241 20.916C30.9467 20.917 30.9687 20.9236 30.9881 20.9352C31.0075 20.9468 31.0237 20.9631 31.0352 20.9826C31.0467 21.002 31.0532 21.0241 31.054 21.0467C31.0549 21.0693 31.0501 21.0917 31.0401 21.112C29.5468 23.9032 28.7418 27.0108 28.6921 30.176C28.6911 30.1986 28.6845 30.2206 28.6729 30.2399C28.6612 30.2593 28.645 30.2755 28.6255 30.287C28.6061 30.2986 28.584 30.305 28.5614 30.3059C28.5388 30.3068 28.5164 30.302 28.4961 30.292C25.7022 28.8029 22.5937 28.0007 19.4281 27.952C19.4055 27.951 19.3835 27.9444 19.3641 27.9327C19.3448 27.9211 19.3286 27.9048 19.3171 27.8854C19.3055 27.8659 19.2991 27.8439 19.2982 27.8213C19.2973 27.7987 19.3021 27.7763 19.3121 27.756C20.8071 24.9611 21.6122 21.8492 21.6601 18.68Z" fill="#FFA63B"/>
<path d="M35.144 33.032C35.1355 33.012 35.1323 32.9902 35.1349 32.9686C35.1374 32.9471 35.1456 32.9266 35.1586 32.9092C35.1715 32.8918 35.1888 32.878 35.2087 32.8694C35.2286 32.8608 35.2505 32.8575 35.272 32.86C38.2748 33.1695 41.3081 32.7581 44.12 31.66C44.1403 31.6525 44.1622 31.6502 44.1837 31.6534C44.2051 31.6566 44.2253 31.6652 44.2425 31.6784C44.2597 31.6916 44.2733 31.709 44.2819 31.7288C44.2906 31.7487 44.2941 31.7704 44.292 31.792C43.9848 34.7934 44.3961 37.8249 45.492 40.636C45.5006 40.6559 45.5037 40.6778 45.5012 40.6993C45.4986 40.7209 45.4905 40.7414 45.4775 40.7588C45.4646 40.7762 45.4473 40.7899 45.4273 40.7985C45.4074 40.8072 45.3856 40.8104 45.364 40.808C42.3625 40.4982 39.3305 40.9096 36.52 42.008C36.4995 42.0153 36.4775 42.0174 36.456 42.0141C36.4344 42.0108 36.414 42.0023 36.3966 41.9892C36.3792 41.9761 36.3653 41.959 36.3561 41.9392C36.3469 41.9195 36.3428 41.8977 36.344 41.876C36.6518 38.8745 36.2404 35.8429 35.144 33.032Z" fill="#6285F9"/>
<path d="M29.6 136.128C25.7808 136.128 22.1181 134.611 19.4176 131.91C16.7171 129.21 15.2 125.547 15.2 121.728V60.7519C15.2 52.4759 21.348 45.7839 28.888 45.7839H124.088C131.628 45.7839 137.78 52.5119 137.78 60.7519V82.0719H137.704V121.744C137.704 125.563 136.187 129.226 133.486 131.926C130.786 134.627 127.123 136.144 123.304 136.144L29.6 136.128Z" fill="#B8B2B2"/>
<path d="M132.156 60.752C132.156 55.608 128.556 51.432 124.156 51.432H28.9121C24.4681 51.432 20.9121 55.608 20.9121 60.752V76.372H132.156V60.752Z" fill="#848181"/>
<path d="M132.112 76.428H20.9121V121.788C20.9163 124.092 21.8328 126.3 23.4609 127.929C25.0891 129.559 27.2965 130.478 29.6001 130.484H123.412C125.718 130.481 127.928 129.564 129.559 127.934C131.19 126.304 132.108 124.094 132.112 121.788V76.428Z" fill="white"/>
<path d="M91.6281 67.8801H30.9201C29.9685 67.8697 29.0589 67.487 28.386 66.8141C27.7131 66.1412 27.3305 65.2316 27.3201 64.2801V62.848C27.3305 61.8965 27.7131 60.9869 28.386 60.314C29.0589 59.6411 29.9685 59.2584 30.9201 59.248H91.6281C92.5803 59.2564 93.4911 59.6384 94.1644 60.3117C94.8377 60.985 95.2197 61.8959 95.2281 62.848V64.2801C95.2197 65.2322 94.8377 66.1431 94.1644 66.8164C93.4911 67.4897 92.5803 67.8717 91.6281 67.8801Z" fill="#A19C9C"/>
<path d="M107.06 67.88C107.902 67.8502 108.716 67.5732 109.402 67.0837C110.088 66.5941 110.614 65.9136 110.916 65.127C111.217 64.3403 111.281 63.4823 111.098 62.6599C110.915 61.8375 110.494 61.0871 109.888 60.5021C109.282 59.9171 108.517 59.5235 107.689 59.3703C106.86 59.2171 106.005 59.311 105.23 59.6405C104.454 59.9699 103.793 60.5203 103.328 61.223C102.863 61.9257 102.616 62.7495 102.616 63.592C102.638 64.7495 103.118 65.851 103.951 66.6548C104.785 67.4587 105.902 67.8993 107.06 67.88Z" fill="#A19C9C"/>
<path d="M120.284 67.88C121.126 67.8502 121.941 67.5732 122.626 67.0837C123.312 66.5941 123.838 65.9136 124.14 65.127C124.441 64.3403 124.505 63.4823 124.322 62.6599C124.139 61.8375 123.719 61.0871 123.112 60.5021C122.506 59.9171 121.741 59.5235 120.913 59.3703C120.084 59.2171 119.229 59.311 118.454 59.6405C117.678 59.9699 117.017 60.5203 116.552 61.223C116.088 61.9257 115.84 62.7495 115.84 63.592C115.862 64.7495 116.342 65.851 117.176 66.6548C118.009 67.4587 119.127 67.8993 120.284 67.88Z" fill="#A19C9C"/>
<path d="M59.8201 87.752H122.996" stroke="#D1CCCC" stroke-width="2.8" stroke-miterlimit="10"/>
<path d="M59.8201 101.152H122.996" stroke="#D1CCCC" stroke-width="2.8" stroke-miterlimit="10"/>
<path d="M59.8201 114.508H122.996" stroke="#D1CCCC" stroke-width="2.8" stroke-miterlimit="10"/>
<path d="M49.132 83.952H31.132C30.1242 83.952 29.1577 84.3524 28.445 85.065C27.7324 85.7777 27.332 86.7442 27.332 87.752C27.332 88.7598 27.7324 89.7264 28.445 90.439C29.1577 91.1517 30.1242 91.552 31.132 91.552H49.132C50.1399 91.552 51.1064 91.1517 51.819 90.439C52.5317 89.7264 52.932 88.7598 52.932 87.752C52.932 86.7442 52.5317 85.7777 51.819 85.065C51.1064 84.3524 50.1399 83.952 49.132 83.952Z" fill="#D1CCCC"/>
<path d="M49.1319 97.336H31.1319C30.6239 97.3195 30.1177 97.4053 29.6434 97.5883C29.1692 97.7714 28.7366 98.0479 28.3713 98.4014C28.0061 98.755 27.7157 99.1784 27.5173 99.6464C27.319 100.114 27.2168 100.618 27.2168 101.126C27.2168 101.634 27.319 102.137 27.5173 102.606C27.7157 103.074 28.0061 103.497 28.3713 103.851C28.7366 104.204 29.1692 104.481 29.6434 104.664C30.1177 104.847 30.6239 104.932 31.1319 104.916H49.1319C49.64 104.932 50.1462 104.847 50.6205 104.664C51.0947 104.481 51.5273 104.204 51.8925 103.851C52.2578 103.497 52.5482 103.074 52.7465 102.606C52.9449 102.137 53.0471 101.634 53.0471 101.126C53.0471 100.618 52.9449 100.114 52.7465 99.6464C52.5482 99.1784 52.2578 98.755 51.8925 98.4014C51.5273 98.0479 51.0947 97.7714 50.6205 97.5883C50.1462 97.4053 49.64 97.3195 49.1319 97.336Z" fill="#D1CCCC"/>
<path d="M49.132 110.712H31.132C30.1242 110.712 29.1577 111.112 28.445 111.825C27.7324 112.538 27.332 113.504 27.332 114.512C27.332 115.52 27.7324 116.486 28.445 117.199C29.1577 117.912 30.1242 118.312 31.132 118.312H49.132C50.1399 118.312 51.1064 117.912 51.819 117.199C52.5317 116.486 52.932 115.52 52.932 114.512C52.932 113.504 52.5317 112.538 51.819 111.825C51.1064 111.112 50.1399 110.712 49.132 110.712Z" fill="#D1CCCC"/>
<path d="M131.284 139.38C142.087 139.38 150.844 130.623 150.844 119.82C150.844 109.017 142.087 100.26 131.284 100.26C120.481 100.26 111.724 109.017 111.724 119.82C111.724 130.623 120.481 139.38 131.284 139.38Z" fill="#FF3838"/>
<path d="M123.784 112.32L138.788 127.324" stroke="white" stroke-width="1.6" stroke-miterlimit="10"/>
<path d="M123.784 127.324L138.788 112.32" stroke="white" stroke-width="1.6" stroke-miterlimit="10"/>
<path d="M111.948 9.83604C111.955 9.8253 111.964 9.81645 111.975 9.81033C111.987 9.80421 111.999 9.80103 112.012 9.80103C112.025 9.80103 112.037 9.80421 112.048 9.81033C112.06 9.81645 112.069 9.8253 112.076 9.83604C112.996 11.3479 114.265 12.6178 115.776 13.54C115.787 13.5464 115.796 13.5555 115.802 13.5663C115.808 13.5772 115.811 13.5895 115.811 13.602C115.811 13.6145 115.808 13.6268 115.802 13.6377C115.796 13.6486 115.787 13.6577 115.776 13.664C114.265 14.5863 112.996 15.8562 112.076 17.368C112.069 17.3788 112.06 17.3876 112.048 17.3937C112.037 17.3998 112.025 17.403 112.012 17.403C111.999 17.403 111.987 17.3998 111.975 17.3937C111.964 17.3876 111.955 17.3788 111.948 17.368C111.025 15.8569 109.755 14.5872 108.244 13.664C108.233 13.6577 108.224 13.6486 108.218 13.6377C108.212 13.6268 108.208 13.6145 108.208 13.602C108.208 13.5895 108.212 13.5772 108.218 13.5663C108.224 13.5555 108.233 13.5464 108.244 13.54C109.755 12.6168 111.025 11.3472 111.948 9.83604Z" fill="#40D4B0"/>
<path d="M121.44 24.812C121.453 24.7987 121.47 24.7892 121.488 24.7844C121.506 24.7795 121.526 24.7796 121.544 24.7844C121.562 24.7893 121.579 24.7988 121.592 24.812C121.605 24.8253 121.615 24.8418 121.62 24.86C122.331 27.3711 123.631 29.6763 125.412 31.584C125.425 31.5976 125.435 31.6145 125.439 31.633C125.444 31.6514 125.443 31.6707 125.438 31.689C125.433 31.7073 125.423 31.7238 125.409 31.737C125.395 31.7501 125.379 31.7594 125.36 31.764C122.85 32.4735 120.546 33.7722 118.64 35.5519C118.626 35.5641 118.61 35.5727 118.592 35.5769C118.574 35.5811 118.555 35.5808 118.537 35.5761C118.519 35.5713 118.503 35.5623 118.49 35.5497C118.476 35.5371 118.466 35.5214 118.46 35.5039C117.75 32.9946 116.451 30.6909 114.672 28.784C114.659 28.7706 114.649 28.7539 114.644 28.7357C114.64 28.7175 114.64 28.6984 114.645 28.6802C114.649 28.662 114.659 28.6454 114.672 28.632C114.685 28.6186 114.702 28.609 114.72 28.6039C117.229 27.8912 119.533 26.5914 121.44 24.812Z" fill="#6285F9"/>
</svg>
